HIERARCHY
ROOT Hips
{
  OFFSET 42.4102 96.803 -69.9419
  CHANNELS 6 Xposition Yposition Zposition Zrotation Xrotation Yrotation
  JOINT RightUpLeg
  {
    OFFSET -8.9458 -8.66707 0.101652
    CHANNELS 3 Zrotation Xrotation Yrotation
    JOINT RightLeg
    {
      OFFSET 0 -44.4227 1.3727
      CHANNELS 3 Zrotation Xrotation Yrotation
      JOINT RightFoot
      {
        OFFSET 0.253549 -42.0924 -1.46059
        CHANNELS 3 Zrotation Xrotation Yrotation
        JOINT RightToes
        {
          OFFSET 0.04 -4.41509 8.4991
          CHANNELS 3 Zrotation Xrotation Yrotation
          End Site
          {
            OFFSET -0.08 -0.137448 9.77979
          }
        }
      }
    }
  }
  JOINT Spine
  {
    OFFSET 0 11.8905 0
    CHANNELS 3 Zrotation Xrotation Yrotation
    JOINT Spine1
    {
      OFFSET 0 25.6574 0.127663
      CHANNELS 3 Zrotation Xrotation Yrotation
      JOINT HEad
      {
        OFFSET 0 8.73416 0.011341
        CHANNELS 3 Zrotation Xrotation Yrotation
        End Site
        {
          OFFSET -0.29 12.7742 2.51395
        }
      }
      JOINT LeftShoulder1
      {
        OFFSET 8.99 -0.362252 -0.22
        CHANNELS 3 Zrotation Xrotation Yrotation
        JOINT LeftArm
        {
          OFFSET 10.2827 -0.00338 0.322123
          CHANNELS 3 Zrotation Xrotation Yrotation
          JOINT LeftForeArm
          {
            OFFSET 32.7669 0.099144 -1.42434
            CHANNELS 3 Zrotation Xrotation Yrotation
            JOINT LeftHand
            {
              OFFSET 27.5643 0.085362 1.02216
              CHANNELS 3 Zrotation Xrotation Yrotation
              End Site
              {
                OFFSET 16.7443 -0.6 1.50291
              }
            }
          }
        }
      }
      JOINT RightShoulder
      {
        OFFSET -8.99 -0.362252 -0.22
        CHANNELS 3 Zrotation Xrotation Yrotation
        JOINT RightArm
        {
          OFFSET -10.2827 -0.00338 0.322123
          CHANNELS 3 Zrotation Xrotation Yrotation
          JOINT RightForeArm
          {
            OFFSET -32.8971 0.099144 -1.42434
            CHANNELS 3 Zrotation Xrotation Yrotation
            JOINT RightHand
            {
              OFFSET -27.4921 0.085362 1.02216
              CHANNELS 3 Zrotation Xrotation Yrotation
              End Site
              {
                OFFSET -16.6312 -0.6 1.50291
              }
            }
          }
        }
      }
    }
  }
  JOINT LeftUpLeg
  {
    OFFSET 8.9458 -8.66707 0.101652
    CHANNELS 3 Zrotation Xrotation Yrotation
    JOINT LeftLeg
    {
      OFFSET 0 -44.4227 1.3727
      CHANNELS 3 Zrotation Xrotation Yrotation
      JOINT LeftFoot
      {
        OFFSET -0.253549 -42.0924 -1.46059
        CHANNELS 3 Zrotation Xrotation Yrotation
        JOINT LeftToes
        {
          OFFSET -0.04 -4.41509 8.4991
          CHANNELS 3 Zrotation Xrotation Yrotation
          End Site
          {
            OFFSET 0.08 -0.047448 9.77979
          }
        }
      }
    }
  }
}
MOTION
Frames:	7
Frame Time:	0.0166667
43.2317 96.8595 -158.205 0.126759 -0.0176285 0.0212984 2.83123 -26.9668 0.48945 -3.34611 15.3775 -20.4439 -0.774432 -6.31365 -0.248781 0.0462048 0.000533964 0.662642 -0.155077 2.10202 0.721879 4.11492 4.86845 -0.234542 -6.67726 4.18847 7.19483 -1.2424e-016 1.59028e-015 -0 -91.4881 -6.89245 -40.4601 -21.1579 14.524 -13.1565 0.368473 9.90896 -0.00117925 -2.74408 0.0567131 -2.56474 79.7277 -48.2861 -8.88446 12.9908 13.7016 14.7825 -0.369625 9.91382 0.00119886 -4.29691 5.79209 0.95304 0.898207 17.4927 12.9811 -6.32702 -25.4535 -1.23004 -4.67233e-012 7.15665e-012 7.88778e-013 
42.9384 96.8296 -156.302 0.0709119 -0.394819 -0.0737125 2.99299 -26.1015 0.317709 -3.24674 16.227 -20.7683 -1.66155 -3.26662 -0.207451 0.399203 0.535158 0.695829 -0.06218 2.07152 0.747675 4.22523 4.92703 -0.243737 -6.84044 4.59537 7.07268 4.72114e-016 -1.59028e-015 -1.98785e-016 -92.0224 -7.51224 -39.7414 -21.2185 14.456 -12.8487 0.368473 9.90896 -0.00117925 -2.69911 0.0590867 -2.53394 79.9992 -47.8256 -8.26491 13.1942 13.7136 14.55 -0.369625 9.91382 0.00119886 -4.0253 6.85567 1.86553 1.17336 18.6187 12.3284 -6.45122 -24.8304 -1.22224 0.181782 0.229942 -0.0822175 
42.6315 96.8014 -154.408 -0.020344 -0.70286 -0.14885 3.17632 -25.4112 0.344894 -3.04278 17.336 -21.2022 -2.43306 -0.735692 -0.170566 0.620637 1.10801 0.741379 0.0370126 2.06453 0.774039 4.36381 4.90166 -0.24984 -6.98578 4.96015 6.95151 1.98785e-016 7.95139e-016 -1.98785e-016 -92.5123 -8.14743 -38.8555 -21.3037 14.4015 -12.6109 0.368473 9.90896 -0.00117925 -2.60069 0.0588725 -2.54884 80.2935 -47.2878 -7.53756 13.4384 13.7371 14.373 -0.369625 9.91382 0.00119886 -3.69511 7.67279 2.60173 1.44966 20.0534 12.0203 -6.66403 -24.1022 -1.22134 1.22614 0.357296 -0.350348 
42.2875 96.7772 -152.544 -0.1848 -0.802009 -0.151125 3.35863 -25.2818 1.13977 -2.46725 19.2505 -22.1833 -2.82625 0.488442 -0.137783 0.272113 1.8078 0.839955 0.151281 2.1287 0.796935 4.5505 4.62248 -0.244707 -7.06934 5.21693 6.82254 2.60905e-016 7.95139e-016 -4.96962e-017 -92.8973 -8.79908 -37.5046 -21.4585 14.3997 -12.634 0.368473 9.90896 -0.00117925 -2.31397 0.04732 -2.75777 80.6227 -46.537 -6.49511 13.7963 13.7885 14.3145 -0.369625 9.91382 0.00119886 -3.1721 7.85735 2.66991 1.62768 22.2378 12.9245 -7.18775 -23.1587 -1.25763 4.75398 0.191665 -1.15714 
41.9227 96.7579 -150.673 -0.442962 -0.834903 -0.159942 3.65343 -25.2497 1.77344 -1.82859 21.3446 -22.8959 -3.14093 0.713306 -0.122605 0.141539 2.52127 0.918998 0.279129 2.21502 0.830764 4.83887 4.26317 -0.240418 -7.16042 5.39383 6.71471 -4.65902e-016 0 -9.93923e-017 -93.2057 -9.49231 -35.892 -21.6509 14.3909 -12.6232 0.368473 9.90896 -0.00117925 -2.02972 0.0403343 -2.89854 81.0322 -45.6671 -5.33389 14.2123 13.8669 14.408 -0.369625 9.91382 0.00119886 -2.4116 7.59905 2.81123 1.64636 25.0221 13.9654 -7.70668 -21.9101 -1.26669 9.33232 -0.105972 -2.18795 
41.5399 96.7589 -148.719 -0.84278 -0.908701 -0.297705 4.216 -24.9202 1.26938 -1.57223 23.1916 -22.2689 -3.69995 -0.208925 -0.142963 1.28128 3.19748 0.888847 0.376932 2.27621 0.90776 5.34418 3.89623 -0.246489 -7.37884 5.49824 6.69552 -7.51655e-016 -7.95139e-016 -0 -93.452 -10.3212 -34.0248 -21.8822 14.3312 -12.3722 0.368473 9.90896 -0.00117925 -1.91089 0.0595846 -2.62659 81.5035 -44.7845 -4.27493 14.6639 13.9793 14.7297 -0.369625 9.91382 0.00119886 -1.24277 7.00827 3.80568 1.53784 28.4528 14.1629 -7.94475 -20.2596 -1.1895 14.3303 -0.572203 -3.25508 
41.1559 96.7393 -146.811 -1.34275 -0.990065 -0.382462 4.91037 -24.4994 0.344701 -1.55979 24.9357 -21.2293 -4.1797 -1.70287 -0.186682 2.47365 3.73845 0.840688 0.57982 2.35473 0.970386 5.90026 3.65539 -0.262377 -7.52952 5.52643 6.64079 -4.65902e-016 7.95139e-016 -2.48481e-017 -93.62 -11.0783 -32.1969 -22.0938 14.2098 -11.8071 0.368473 9.90896 -0.00117925 -1.90594 0.079017 -2.33734 82.2969 -43.7348 -2.99293 15.1207 14.1164 15.2167 -0.369625 9.91382 0.00119886 0.104129 5.93021 5.04623 1.58483 32.5605 13.8931 -8.03175 -18.1175 -1.05132 18.9804 -0.80369 -4.33093 
